<svg width="800" height="400" viewBox="0 0 800 400" xmlns="http://www.w3.org/2000/svg"><mask id="satori_om-id"><rect x="0" y="0" width="800" height="400" fill="#fff"/></mask><rect x="0" y="0" width="800" height="400" fill="#fff"/><mask id="satori_om-id-0"><rect x="224" y="110" width="352" height="180" fill="#fff"/></mask><mask id="satori_om-id-0-0"><rect x="224" y="110" width="352" height="180" fill="#fff"/></mask><mask id="satori_om-id-0-0-0"><rect x="224" y="130" width="352" height="120" fill="#fff"/></mask><mask id="satori_om-id-0-0-0-0"><rect x="229" y="130" width="343" height="40" fill="#fff"/></mask><path fill="#111827" d="M254.4 146.1L254.4 146.1L248.8 146.1Q248.6 145.0 248.2 144.1Q247.7 143.3 246.9 142.7Q246.2 142.1 245.2 141.8Q244.3 141.4 243.1 141.4L243.1 141.4Q241.1 141.4 239.6 142.5Q238.1 143.5 237.3 145.4Q236.4 147.3 236.4 150L236.4 150Q236.4 152.8 237.3 154.7Q238.1 156.6 239.6 157.6Q241.1 158.6 243.1 158.6L243.1 158.6Q244.2 158.6 245.2 158.3Q246.1 158.0 246.9 157.4Q247.6 156.8 248.1 156.0Q248.6 155.2 248.8 154.1L248.8 154.1L254.4 154.2Q254.2 156.0 253.3 157.6Q252.4 159.3 251.0 160.6Q249.5 161.9 247.5 162.7Q245.5 163.4 243.0 163.4L243.0 163.4Q239.5 163.4 236.8 161.9Q234.0 160.3 232.4 157.3Q230.8 154.3 230.8 150L230.8 150Q230.8 145.7 232.4 142.7Q234.0 139.7 236.8 138.1Q239.6 136.6 243.0 136.6L243.0 136.6Q245.3 136.6 247.2 137.2Q249.2 137.8 250.7 139.1Q252.2 140.3 253.2 142.0Q254.1 143.8 254.4 146.1ZM263.7 163.1L258.3 163.1L258.3 143.5L263.5 143.5L263.5 146.9L263.7 146.9Q264.3 145.1 265.5 144.1Q266.8 143.2 268.5 143.2L268.5 143.2Q268.9 143.2 269.3 143.2Q269.8 143.3 270.2 143.4L270.2 143.4L270.2 148.2Q269.8 148.1 269.1 148.0Q268.4 147.9 267.9 147.9L267.9 147.9Q266.7 147.9 265.7 148.4Q264.8 148.9 264.2 149.9Q263.7 150.8 263.7 152.0L263.7 152.0L263.7 163.1ZM281.0 163.5L281.0 163.5Q278.0 163.5 275.8 162.2Q273.6 161.0 272.4 158.7Q271.3 156.5 271.3 153.4L271.3 153.4Q271.3 150.3 272.4 148.0Q273.6 145.8 275.7 144.5Q277.9 143.2 280.8 143.2L280.8 143.2Q282.7 143.2 284.4 143.8Q286.1 144.4 287.3 145.7Q288.6 146.9 289.3 148.8Q290.0 150.7 290.0 153.2L290.0 153.2L290.0 154.7L273.4 154.7L273.4 151.3L284.9 151.3Q284.9 150.1 284.4 149.2Q283.9 148.3 283.0 147.8Q282.1 147.3 280.9 147.3L280.9 147.3Q279.6 147.3 278.7 147.8Q277.7 148.4 277.2 149.4Q276.6 150.3 276.6 151.5L276.6 151.5L276.6 154.7Q276.6 156.1 277.2 157.2Q277.7 158.3 278.7 158.8Q279.7 159.4 281.1 159.4L281.1 159.4Q282.0 159.4 282.7 159.2Q283.5 158.9 284.0 158.4Q284.6 157.9 284.9 157.1L284.9 157.1L289.9 157.5Q289.5 159.3 288.3 160.6Q287.1 162.0 285.3 162.7Q283.4 163.5 281.0 163.5ZM299.2 163.5L299.2 163.5Q297.3 163.5 295.8 162.8Q294.3 162.1 293.5 160.8Q292.6 159.5 292.6 157.6L292.6 157.6Q292.6 156.0 293.2 154.9Q293.8 153.7 294.9 153.1Q295.9 152.4 297.2 152.0Q298.6 151.7 300.0 151.6L300.0 151.6Q301.7 151.4 302.8 151.2Q303.8 151.1 304.3 150.7Q304.8 150.4 304.8 149.8L304.8 149.8L304.8 149.7Q304.8 148.5 304.0 147.8Q303.3 147.2 301.9 147.2L301.9 147.2Q300.4 147.2 299.5 147.8Q298.6 148.5 298.4 149.4L298.4 149.4L293.3 149.0Q293.7 147.2 294.8 145.9Q296.0 144.6 297.7 143.9Q299.5 143.2 301.9 143.2L301.9 143.2Q303.5 143.2 305.0 143.6Q306.5 144.0 307.7 144.8Q308.9 145.6 309.5 146.8Q310.2 148.1 310.2 149.8L310.2 149.8L310.2 163.1L305.1 163.1L305.1 160.4L304.9 160.4Q304.4 161.3 303.6 162.0Q302.8 162.7 301.7 163.1Q300.6 163.5 299.2 163.5ZM300.7 159.7L300.7 159.7Q301.9 159.7 302.8 159.2Q303.8 158.7 304.3 157.9Q304.8 157.1 304.8 156.1L304.8 156.1L304.8 154.0Q304.6 154.2 304.1 154.3Q303.7 154.4 303.1 154.5Q302.6 154.6 302.0 154.7Q301.5 154.8 301.0 154.9L301.0 154.9Q300.1 155.0 299.4 155.3Q298.6 155.6 298.2 156.1Q297.8 156.7 297.8 157.4L297.8 157.4Q297.8 158.5 298.7 159.1Q299.5 159.7 300.7 159.7ZM313.1 143.5L324.9 143.5L324.9 147.5L313.1 147.5L313.1 143.5ZM315.8 157.8L315.8 138.8L321.2 138.8L321.2 157.1Q321.2 157.8 321.4 158.2Q321.7 158.6 322.1 158.8Q322.5 159.0 323.0 159.0L323.0 159.0Q323.4 159.0 323.8 158.9Q324.2 158.8 324.4 158.8L324.4 158.8L325.3 162.8Q324.8 163.0 324.1 163.1Q323.4 163.3 322.3 163.4L322.3 163.4Q320.3 163.4 318.9 162.8Q317.4 162.2 316.6 161.0Q315.7 159.7 315.8 157.8L315.8 157.8ZM337.2 163.5L337.2 163.5Q334.1 163.5 332.0 162.2Q329.8 161.0 328.6 158.7Q327.4 156.5 327.4 153.4L327.4 153.4Q327.4 150.3 328.6 148.0Q329.8 145.8 331.9 144.5Q334.1 143.2 337.0 143.2L337.0 143.2Q338.9 143.2 340.6 143.8Q342.3 144.4 343.5 145.7Q344.8 146.9 345.5 148.8Q346.2 150.7 346.2 153.2L346.2 153.2L346.2 154.7L329.6 154.7L329.6 151.3L341.1 151.3Q341.1 150.1 340.6 149.2Q340.0 148.3 339.1 147.8Q338.2 147.3 337.1 147.3L337.1 147.3Q335.8 147.3 334.9 147.8Q333.9 148.4 333.4 149.4Q332.8 150.3 332.8 151.5L332.8 151.5L332.8 154.7Q332.8 156.1 333.4 157.2Q333.9 158.3 334.9 158.8Q335.9 159.4 337.3 159.4L337.3 159.4Q338.2 159.4 338.9 159.2Q339.7 158.9 340.2 158.4Q340.8 157.9 341.0 157.1L341.0 157.1L346.1 157.5Q345.7 159.3 344.5 160.6Q343.3 162.0 341.5 162.7Q339.6 163.5 337.2 163.5Z M377.0 163.1L359.3 163.1L359.3 136.9L377.0 136.9L377.0 141.5L364.9 141.5L364.9 147.7L376.1 147.7L376.1 152.3L364.9 152.3L364.9 158.5L377.0 158.5L377.0 163.1ZM379.7 143.5L391.8 143.5L391.8 147.5L379.7 147.5L379.7 143.5ZM387.9 163.1L382.5 163.1L382.5 142.0Q382.5 139.9 383.3 138.5Q384.2 137.1 385.6 136.4Q387.1 135.7 388.9 135.7L388.9 135.7Q390.2 135.7 391.2 135.9Q392.3 136.1 392.8 136.2L392.8 136.2L391.8 140.3Q391.5 140.2 391.0 140.1Q390.6 140.0 390.1 140.0L390.1 140.0Q388.9 140.0 388.4 140.6Q387.9 141.1 387.9 142.1L387.9 142.1L387.9 163.1ZM393.6 143.5L405.7 143.5L405.7 147.5L393.6 147.5L393.6 143.5ZM401.8 163.1L396.4 163.1L396.4 142.0Q396.4 139.9 397.2 138.5Q398.0 137.1 399.5 136.4Q401.0 135.7 402.8 135.7L402.8 135.7Q404.1 135.7 405.1 135.9Q406.1 136.1 406.7 136.2L406.7 136.2L405.7 140.3Q405.4 140.2 404.9 140.1Q404.4 140.0 404.0 140.0L404.0 140.0Q402.7 140.0 402.3 140.6Q401.8 141.1 401.8 142.1L401.8 142.1L401.8 163.1ZM417.2 163.5L417.2 163.5Q414.2 163.5 412.1 162.2Q409.9 160.9 408.7 158.6Q407.6 156.4 407.6 153.3L407.6 153.3Q407.6 150.3 408.7 148.0Q409.9 145.7 412.1 144.5Q414.2 143.2 417.2 143.2L417.2 143.2Q420.2 143.2 422.4 144.5Q424.5 145.7 425.7 148.0Q426.9 150.3 426.9 153.3L426.9 153.3Q426.9 156.4 425.7 158.6Q424.5 160.9 422.4 162.2Q420.2 163.5 417.2 163.5ZM417.2 159.3L417.2 159.3Q418.6 159.3 419.5 158.5Q420.4 157.7 420.9 156.4Q421.3 155.0 421.3 153.3L421.3 153.3Q421.3 151.6 420.9 150.3Q420.4 148.9 419.5 148.1Q418.6 147.4 417.2 147.4L417.2 147.4Q415.9 147.4 415.0 148.1Q414.0 148.9 413.6 150.3Q413.1 151.6 413.1 153.3L413.1 153.3Q413.1 155.0 413.6 156.4Q414.0 157.7 415.0 158.5Q415.9 159.3 417.2 159.3ZM435.9 163.1L430.4 163.1L430.4 143.5L435.7 143.5L435.7 146.9L435.9 146.9Q436.5 145.1 437.7 144.1Q439.0 143.2 440.6 143.2L440.6 143.2Q441.0 143.2 441.5 143.2Q442.0 143.3 442.4 143.4L442.4 143.4L442.4 148.2Q442.0 148.1 441.3 148.0Q440.6 147.9 440.1 147.9L440.1 147.9Q438.9 147.9 437.9 148.4Q437.0 148.9 436.4 149.9Q435.9 150.8 435.9 152.0L435.9 152.0L435.9 163.1ZM444.8 143.5L456.6 143.5L456.6 147.5L444.8 147.5L444.8 143.5ZM447.4 157.8L447.4 138.8L452.9 138.8L452.9 157.1Q452.9 157.8 453.1 158.2Q453.3 158.6 453.8 158.8Q454.2 159.0 454.7 159.0L454.7 159.0Q455.1 159.0 455.5 158.9Q455.9 158.8 456.1 158.8L456.1 158.8L456.9 162.8Q456.5 163.0 455.8 163.1Q455.0 163.3 454.0 163.4L454.0 163.4Q452.0 163.4 450.5 162.8Q449.1 162.2 448.2 161.0Q447.4 159.7 447.4 157.8L447.4 157.8ZM460.5 136.9L466.0 136.9L466.0 163.1L460.5 163.1L460.5 136.9ZM479.3 163.5L479.3 163.5Q476.2 163.5 474.1 162.2Q471.9 161.0 470.7 158.7Q469.5 156.5 469.5 153.4L469.5 153.4Q469.5 150.3 470.7 148.0Q471.9 145.8 474.0 144.5Q476.2 143.2 479.1 143.2L479.1 143.2Q481 143.2 482.7 143.8Q484.4 144.4 485.6 145.7Q486.9 146.9 487.6 148.8Q488.3 150.7 488.3 153.2L488.3 153.2L488.3 154.7L471.7 154.7L471.7 151.3L483.2 151.3Q483.2 150.1 482.6 149.2Q482.1 148.3 481.2 147.8Q480.3 147.3 479.1 147.3L479.1 147.3Q477.9 147.3 477.0 147.8Q476.0 148.4 475.5 149.4Q474.9 150.3 474.9 151.5L474.9 151.5L474.9 154.7Q474.9 156.1 475.5 157.2Q476.0 158.3 477.0 158.8Q478.0 159.4 479.4 159.4L479.4 159.4Q480.3 159.4 481.0 159.2Q481.8 158.9 482.3 158.4Q482.9 157.9 483.1 157.1L483.1 157.1L488.2 157.5Q487.8 159.3 486.6 160.6Q485.4 162.0 483.6 162.7Q481.7 163.5 479.3 163.5ZM508.2 149.1L508.2 149.1L503.2 149.4Q503.1 148.7 502.6 148.2Q502.2 147.7 501.5 147.4Q500.9 147.1 499.9 147.1L499.9 147.1Q498.6 147.1 497.8 147.6Q496.9 148.1 496.9 149.0L496.9 149.0Q496.9 149.7 497.5 150.2Q498.0 150.7 499.4 151.0L499.4 151.0L503.0 151.7Q505.8 152.3 507.2 153.6Q508.6 154.9 508.6 157.0L508.6 157.0Q508.6 158.9 507.5 160.4Q506.4 161.9 504.4 162.7Q502.4 163.5 499.9 163.5L499.9 163.5Q496.0 163.5 493.7 161.8Q491.4 160.2 491.0 157.4L491.0 157.4L496.3 157.1Q496.6 158.3 497.5 158.9Q498.4 159.5 499.9 159.5L499.9 159.5Q501.3 159.5 502.2 159.0Q503.1 158.4 503.1 157.6L503.1 157.6Q503.1 156.8 502.5 156.3Q501.9 155.9 500.6 155.6L500.6 155.6L497.2 154.9Q494.3 154.3 492.9 152.9Q491.5 151.5 491.5 149.3L491.5 149.3Q491.5 147.4 492.5 146.0Q493.6 144.7 495.4 143.9Q497.3 143.2 499.8 143.2L499.8 143.2Q503.5 143.2 505.7 144.8Q507.8 146.3 508.2 149.1ZM528.4 149.1L528.4 149.1L523.4 149.4Q523.3 148.7 522.9 148.2Q522.4 147.7 521.8 147.4Q521.1 147.1 520.1 147.1L520.1 147.1Q518.9 147.1 518.0 147.6Q517.1 148.1 517.1 149.0L517.1 149.0Q517.1 149.7 517.7 150.2Q518.3 150.7 519.6 151.0L519.6 151.0L523.2 151.7Q526.0 152.3 527.4 153.6Q528.9 154.9 528.9 157.0L528.9 157.0Q528.9 158.9 527.7 160.4Q526.6 161.9 524.6 162.7Q522.7 163.5 520.1 163.5L520.1 163.5Q516.2 163.5 513.9 161.8Q511.6 160.2 511.2 157.4L511.2 157.4L516.6 157.1Q516.8 158.3 517.7 158.9Q518.7 159.5 520.1 159.5L520.1 159.5Q521.6 159.5 522.4 159.0Q523.3 158.4 523.3 157.6L523.3 157.6Q523.3 156.8 522.7 156.3Q522.1 155.9 520.8 155.6L520.8 155.6L517.4 154.9Q514.5 154.3 513.1 152.9Q511.7 151.5 511.7 149.3L511.7 149.3Q511.7 147.4 512.7 146.0Q513.8 144.7 515.7 143.9Q517.5 143.2 520.0 143.2L520.0 143.2Q523.8 143.2 525.9 144.8Q528.0 146.3 528.4 149.1ZM532.3 136.9L537.7 136.9L537.7 163.1L532.3 163.1L532.3 136.9ZM545.4 170.5L545.4 170.5Q544.4 170.5 543.5 170.3Q542.6 170.1 542.0 169.9L542.0 169.9L543.2 165.8Q544.2 166.1 545.0 166.1Q545.8 166.2 546.3 165.8Q546.9 165.4 547.2 164.5L547.2 164.5L547.6 163.7L540.5 143.5L546.3 143.5L550.3 157.9L550.5 157.9L554.6 143.5L560.4 143.5L552.8 165.2Q552.2 166.8 551.3 168.0Q550.3 169.2 548.9 169.8Q547.5 170.5 545.4 170.5ZM565.1 163.4L565.1 163.4Q563.9 163.4 563.0 162.5Q562.1 161.6 562.1 160.4L562.1 160.4Q562.1 159.1 563.0 158.2Q563.9 157.3 565.1 157.3L565.1 157.3Q566.4 157.3 567.3 158.2Q568.2 159.1 568.2 160.4L568.2 160.4Q568.2 161.2 567.8 161.9Q567.3 162.6 566.7 163.0Q566.0 163.4 565.1 163.4Z "/><mask id="satori_om-id-0-0-0-1"><rect x="224" y="170" width="352" height="40" fill="#fff"/></mask><path fill="#111827" d="M231.8 203.1L226.3 203.1L226.3 176.9L236.6 176.9Q239.6 176.9 241.7 178.0Q243.8 179.2 244.9 181.2Q246.0 183.2 246.0 185.8L246.0 185.8Q246.0 188.4 244.9 190.4Q243.7 192.4 241.6 193.5Q239.5 194.6 236.5 194.6L236.5 194.6L229.9 194.6L229.9 190.2L235.6 190.2Q237.2 190.2 238.2 189.6Q239.3 189.1 239.8 188.1Q240.3 187.1 240.3 185.8L240.3 185.8Q240.3 184.5 239.8 183.5Q239.3 182.5 238.2 182.0Q237.2 181.4 235.5 181.4L235.5 181.4L231.8 181.4L231.8 203.1ZM262.1 194.7L262.1 194.7L262.1 183.5L267.5 183.5L267.5 203.1L262.3 203.1L262.3 199.5L262.1 199.5Q261.4 201.3 259.9 202.3Q258.4 203.3 256.1 203.3L256.1 203.3Q254.2 203.3 252.7 202.5Q251.2 201.6 250.3 199.9Q249.5 198.3 249.5 196.0L249.5 196.0L249.5 183.5L254.9 183.5L254.9 195.0Q255.0 196.7 255.9 197.7Q256.8 198.7 258.3 198.7L258.3 198.7Q259.3 198.7 260.2 198.3Q261.0 197.8 261.6 196.9Q262.1 196.0 262.1 194.7ZM277.3 203.1L272.0 203.1L272.0 176.9L277.4 176.9L277.4 186.8L277.6 186.8Q277.9 186.0 278.6 185.1Q279.3 184.3 280.4 183.8Q281.5 183.2 283.2 183.2L283.2 183.2Q285.3 183.2 287.1 184.3Q289.0 185.4 290.0 187.7Q291.1 189.9 291.1 193.3L291.1 193.3Q291.1 196.6 290.1 198.8Q289.0 201.1 287.2 202.3Q285.4 203.4 283.2 203.4L283.2 203.4Q281.6 203.4 280.5 202.9Q279.4 202.4 278.7 201.6Q278.0 200.8 277.6 199.9L277.6 199.9L277.3 199.9L277.3 203.1ZM277.3 193.3L277.3 193.3Q277.3 195.0 277.8 196.3Q278.3 197.6 279.2 198.4Q280.1 199.1 281.4 199.1L281.4 199.1Q282.8 199.1 283.7 198.3Q284.6 197.6 285.1 196.3Q285.6 195.0 285.6 193.3L285.6 193.3Q285.6 191.6 285.1 190.3Q284.6 189.0 283.7 188.3Q282.8 187.5 281.4 187.5L281.4 187.5Q280.1 187.5 279.2 188.2Q278.3 188.9 277.8 190.2Q277.3 191.5 277.3 193.3ZM294.7 176.9L300.2 176.9L300.2 203.1L294.7 203.1L294.7 176.9ZM310.0 203.1L304.5 203.1L304.5 183.5L310.0 183.5L310.0 203.1ZM307.3 180.9L307.3 180.9Q306.1 180.9 305.2 180.1Q304.3 179.3 304.3 178.2L304.3 178.2Q304.3 177.0 305.2 176.2Q306.1 175.4 307.3 175.4L307.3 175.4Q308.5 175.4 309.4 176.2Q310.2 177.0 310.2 178.2L310.2 178.2Q310.2 179.3 309.4 180.1Q308.5 180.9 307.3 180.9ZM330.7 189.1L330.7 189.1L325.7 189.4Q325.6 188.7 325.1 188.2Q324.7 187.7 324.0 187.4Q323.3 187.1 322.4 187.1L322.4 187.1Q321.1 187.1 320.3 187.6Q319.4 188.1 319.4 189.0L319.4 189.0Q319.4 189.7 320.0 190.2Q320.5 190.7 321.9 191.0L321.9 191.0L325.4 191.7Q328.3 192.3 329.7 193.6Q331.1 194.9 331.1 197.0L331.1 197.0Q331.1 198.9 330.0 200.4Q328.9 201.9 326.9 202.7Q324.9 203.5 322.4 203.5L322.4 203.5Q318.5 203.5 316.2 201.8Q313.9 200.2 313.5 197.4L313.5 197.4L318.8 197.1Q319.1 198.3 320.0 198.9Q320.9 199.5 322.4 199.5L322.4 199.5Q323.8 199.5 324.7 199.0Q325.6 198.4 325.6 197.6L325.6 197.6Q325.6 196.8 325.0 196.3Q324.3 195.9 323.1 195.6L323.1 195.6L319.7 194.9Q316.8 194.3 315.4 192.9Q314.0 191.5 314.0 189.3L314.0 189.3Q314.0 187.4 315.0 186.0Q316.0 184.7 317.9 183.9Q319.8 183.2 322.3 183.2L322.3 183.2Q326.0 183.2 328.2 184.8Q330.3 186.3 330.7 189.1ZM340.0 191.7L340.0 191.7L340.0 203.1L334.6 203.1L334.6 176.9L339.8 176.9L339.8 186.9L340.1 186.9Q340.7 185.2 342.2 184.2Q343.7 183.2 345.9 183.2L345.9 183.2Q348.0 183.2 349.5 184.1Q351.0 185.0 351.9 186.6Q352.7 188.3 352.7 190.6L352.7 190.6L352.7 203.1L347.3 203.1L347.3 191.6Q347.3 189.7 346.4 188.7Q345.4 187.7 343.8 187.7L343.8 187.7Q342.7 187.7 341.8 188.2Q341.0 188.7 340.5 189.6Q340.0 190.5 340.0 191.7Z M385.0 184.4L379.7 184.4Q379.5 182.9 378.4 182.0Q377.2 181.2 375.2 181.2L375.2 181.2Q373.9 181.2 372.9 181.6Q372.0 181.9 371.5 182.6Q371.0 183.3 371.0 184.1L371.0 184.1Q371.0 184.8 371.3 185.3Q371.6 185.9 372.2 186.2Q372.8 186.6 373.5 186.9Q374.3 187.2 375.1 187.4L375.1 187.4L377.5 187.9Q379.2 188.3 380.6 188.9Q382.1 189.6 383.1 190.5Q384.2 191.4 384.8 192.7Q385.3 194.0 385.3 195.6L385.3 195.6Q385.3 198.0 384.1 199.8Q382.9 201.5 380.6 202.5Q378.4 203.5 375.2 203.5L375.2 203.5Q372.0 203.5 369.7 202.5Q367.3 201.5 366.0 199.6Q364.7 197.7 364.6 194.9L364.6 194.9L370.0 194.9Q370.1 196.2 370.8 197.1Q371.4 197.9 372.6 198.4Q373.7 198.8 375.1 198.8L375.1 198.8Q376.5 198.8 377.6 198.4Q378.6 198.0 379.2 197.3Q379.8 196.5 379.8 195.6L379.8 195.6Q379.8 194.7 379.2 194.1Q378.7 193.5 377.7 193.1Q376.7 192.7 375.3 192.3L375.3 192.3L372.5 191.6Q369.2 190.8 367.2 189.1Q365.3 187.4 365.3 184.5L365.3 184.5Q365.3 182.1 366.6 180.3Q367.9 178.5 370.1 177.5Q372.4 176.6 375.2 176.6L375.2 176.6Q378.2 176.6 380.3 177.5Q382.5 178.5 383.7 180.3Q385.0 182.1 385.0 184.4L385.0 184.4ZM397.9 203.5L397.9 203.5Q394.9 203.5 392.7 202.2Q390.5 201.0 389.3 198.7Q388.2 196.5 388.2 193.4L388.2 193.4Q388.2 190.3 389.3 188.0Q390.5 185.8 392.7 184.5Q394.8 183.2 397.7 183.2L397.7 183.2Q399.6 183.2 401.3 183.8Q403.0 184.4 404.2 185.7Q405.5 186.9 406.2 188.8Q406.9 190.7 406.9 193.2L406.9 193.2L406.9 194.7L390.3 194.7L390.3 191.3L401.8 191.3Q401.8 190.1 401.3 189.2Q400.8 188.3 399.9 187.8Q399.0 187.3 397.8 187.3L397.8 187.3Q396.5 187.3 395.6 187.8Q394.6 188.4 394.1 189.4Q393.6 190.3 393.5 191.5L393.5 191.5L393.5 194.7Q393.5 196.1 394.1 197.2Q394.6 198.3 395.6 198.8Q396.6 199.4 398.0 199.4L398.0 199.4Q398.9 199.4 399.7 199.2Q400.4 198.9 400.9 198.4Q401.5 197.9 401.8 197.1L401.8 197.1L406.8 197.5Q406.4 199.3 405.2 200.6Q404.1 202.0 402.2 202.7Q400.3 203.5 397.9 203.5ZM416.1 203.5L416.1 203.5Q414.2 203.5 412.7 202.8Q411.2 202.1 410.4 200.8Q409.5 199.5 409.5 197.6L409.5 197.6Q409.5 196.0 410.1 194.9Q410.7 193.7 411.8 193.1Q412.8 192.4 414.1 192.0Q415.5 191.7 416.9 191.6L416.9 191.6Q418.6 191.4 419.7 191.2Q420.7 191.1 421.2 190.7Q421.7 190.4 421.7 189.8L421.7 189.8L421.7 189.7Q421.7 188.5 420.9 187.8Q420.2 187.2 418.8 187.2L418.8 187.2Q417.3 187.2 416.4 187.8Q415.6 188.5 415.3 189.4L415.3 189.4L410.2 189.0Q410.6 187.2 411.7 185.9Q412.9 184.6 414.7 183.9Q416.4 183.2 418.8 183.2L418.8 183.2Q420.4 183.2 421.9 183.6Q423.4 184.0 424.6 184.8Q425.8 185.6 426.4 186.8Q427.1 188.1 427.1 189.8L427.1 189.8L427.1 203.1L422.0 203.1L422.0 200.4L421.8 200.4Q421.3 201.3 420.5 202.0Q419.7 202.7 418.6 203.1Q417.5 203.5 416.1 203.5ZM417.6 199.7L417.6 199.7Q418.8 199.7 419.7 199.2Q420.7 198.7 421.2 197.9Q421.7 197.1 421.7 196.1L421.7 196.1L421.7 194.0Q421.5 194.2 421.0 194.3Q420.6 194.4 420.0 194.5Q419.5 194.6 418.9 194.7Q418.4 194.8 417.9 194.9L417.9 194.9Q417.0 195.0 416.3 195.3Q415.5 195.6 415.1 196.1Q414.8 196.7 414.8 197.4L414.8 197.4Q414.8 198.5 415.6 199.1Q416.4 199.7 417.6 199.7ZM436.8 203.1L431.4 203.1L431.4 183.5L436.5 183.5L436.5 186.9L436.8 186.9Q437.4 185.2 438.8 184.2Q440.3 183.2 442.3 183.2L442.3 183.2Q444.3 183.2 445.7 184.2Q447.1 185.2 447.6 186.9L447.6 186.9L447.8 186.9Q448.4 185.2 450.0 184.2Q451.5 183.2 453.7 183.2L453.7 183.2Q456.5 183.2 458.2 184.9Q459.9 186.7 459.9 189.9L459.9 189.9L459.9 203.1L454.5 203.1L454.5 191.0Q454.5 189.3 453.6 188.5Q452.7 187.7 451.4 187.7L451.4 187.7Q449.9 187.7 449.1 188.6Q448.3 189.6 448.3 191.1L448.3 191.1L448.3 203.1L443.0 203.1L443.0 190.8Q443.0 189.4 442.2 188.5Q441.3 187.7 440 187.7L440 187.7Q439.1 187.7 438.4 188.1Q437.6 188.6 437.2 189.4Q436.8 190.2 436.8 191.3L436.8 191.3L436.8 203.1ZM464.2 176.9L469.6 176.9L469.6 203.1L464.2 203.1L464.2 176.9ZM482.9 203.5L482.9 203.5Q479.9 203.5 477.7 202.2Q475.5 201.0 474.4 198.7Q473.2 196.5 473.2 193.4L473.2 193.4Q473.2 190.3 474.4 188.0Q475.5 185.8 477.7 184.5Q479.8 183.2 482.7 183.2L482.7 183.2Q484.7 183.2 486.3 183.8Q488.0 184.4 489.3 185.7Q490.5 186.9 491.2 188.8Q491.9 190.7 491.9 193.2L491.9 193.2L491.9 194.7L475.4 194.7L475.4 191.3L486.8 191.3Q486.8 190.1 486.3 189.2Q485.8 188.3 484.9 187.8Q484.0 187.3 482.8 187.3L482.8 187.3Q481.6 187.3 480.6 187.8Q479.7 188.4 479.1 189.4Q478.6 190.3 478.6 191.5L478.6 191.5L478.6 194.7Q478.6 196.1 479.1 197.2Q479.7 198.3 480.7 198.8Q481.7 199.4 483.0 199.4L483.0 199.4Q483.9 199.4 484.7 199.2Q485.4 198.9 486.0 198.4Q486.5 197.9 486.8 197.1L486.8 197.1L491.8 197.5Q491.4 199.3 490.3 200.6Q489.1 202.0 487.2 202.7Q485.4 203.5 482.9 203.5ZM511.8 189.1L511.8 189.1L506.8 189.4Q506.7 188.7 506.3 188.2Q505.9 187.7 505.2 187.4Q504.5 187.1 503.6 187.1L503.6 187.1Q502.3 187.1 501.4 187.6Q500.6 188.1 500.6 189.0L500.6 189.0Q500.6 189.7 501.1 190.2Q501.7 190.7 503.1 191.0L503.1 191.0L506.6 191.7Q509.5 192.3 510.9 193.6Q512.3 194.9 512.3 197.0L512.3 197.0Q512.3 198.9 511.1 200.4Q510.0 201.9 508.1 202.7Q506.1 203.5 503.5 203.5L503.5 203.5Q499.6 203.5 497.3 201.8Q495.0 200.2 494.6 197.4L494.6 197.4L500.0 197.1Q500.2 198.3 501.2 198.9Q502.1 199.5 503.5 199.5L503.5 199.5Q505.0 199.5 505.9 199.0Q506.7 198.4 506.7 197.6L506.7 197.6Q506.7 196.8 506.1 196.3Q505.5 195.9 504.2 195.6L504.2 195.6L500.8 194.9Q498.0 194.3 496.6 192.9Q495.2 191.5 495.2 189.3L495.2 189.3Q495.2 187.4 496.2 186.0Q497.2 184.7 499.1 183.9Q501.0 183.2 503.5 183.2L503.5 183.2Q507.2 183.2 509.3 184.8Q511.5 186.3 511.8 189.1ZM532.1 189.1L532.1 189.1L527.1 189.4Q526.9 188.7 526.5 188.2Q526.1 187.7 525.4 187.4Q524.7 187.1 523.8 187.1L523.8 187.1Q522.5 187.1 521.7 187.6Q520.8 188.1 520.8 189.0L520.8 189.0Q520.8 189.7 521.3 190.2Q521.9 190.7 523.3 191.0L523.3 191.0L526.8 191.7Q529.7 192.3 531.1 193.6Q532.5 194.9 532.5 197.0L532.5 197.0Q532.5 198.9 531.4 200.4Q530.2 201.9 528.3 202.7Q526.3 203.5 523.8 203.5L523.8 203.5Q519.9 203.5 517.6 201.8Q515.2 200.2 514.9 197.4L514.9 197.4L520.2 197.1Q520.5 198.3 521.4 198.9Q522.3 199.5 523.8 199.5L523.8 199.5Q525.2 199.5 526.1 199.0Q527.0 198.4 527.0 197.6L527.0 197.6Q527.0 196.8 526.3 196.3Q525.7 195.9 524.5 195.6L524.5 195.6L521.1 194.9Q518.2 194.3 516.8 192.9Q515.4 191.5 515.4 189.3L515.4 189.3Q515.4 187.4 516.4 186.0Q517.4 184.7 519.3 183.9Q521.2 183.2 523.7 183.2L523.7 183.2Q527.4 183.2 529.6 184.8Q531.7 186.3 532.1 189.1ZM535.9 176.9L541.4 176.9L541.4 203.1L535.9 203.1L535.9 176.9ZM549.1 210.5L549.1 210.5Q548.1 210.5 547.2 210.3Q546.3 210.1 545.7 209.9L545.7 209.9L546.9 205.8Q547.9 206.1 548.6 206.1Q549.4 206.2 550.0 205.8Q550.5 205.4 550.9 204.5L550.9 204.5L551.2 203.7L544.2 183.5L549.9 183.5L554.0 197.9L554.2 197.9L558.3 183.5L564.0 183.5L556.4 205.2Q555.9 206.8 554.9 208.0Q554.0 209.2 552.6 209.8Q551.1 210.5 549.1 210.5ZM568.8 203.4L568.8 203.4Q567.5 203.4 566.6 202.5Q565.7 201.6 565.7 200.4L565.7 200.4Q565.7 199.1 566.6 198.2Q567.5 197.3 568.8 197.3L568.8 197.3Q570.0 197.3 570.9 198.2Q571.9 199.1 571.9 200.4L571.9 200.4Q571.9 201.2 571.4 201.9Q571.0 202.6 570.3 203.0Q569.6 203.4 568.8 203.4Z "/><mask id="satori_om-id-0-0-0-2"><rect x="267" y="210" width="266" height="40" fill="#fff"/></mask><path fill="#facc15" d="M274.8 243.1L269.3 243.1L269.3 216.9L279.6 216.9Q282.6 216.9 284.7 218.0Q286.8 219.2 287.9 221.2Q289.0 223.2 289.0 225.8L289.0 225.8Q289.0 228.4 287.9 230.4Q286.7 232.4 284.6 233.5Q282.5 234.6 279.5 234.6L279.5 234.6L272.9 234.6L272.9 230.2L278.6 230.2Q280.2 230.2 281.2 229.6Q282.3 229.1 282.8 228.1Q283.3 227.1 283.3 225.8L283.3 225.8Q283.3 224.5 282.8 223.5Q282.3 222.5 281.2 222.0Q280.2 221.4 278.5 221.4L278.5 221.4L274.8 221.4L274.8 243.1ZM301.0 243.5L301.0 243.5Q298.1 243.5 295.9 242.2Q293.7 240.9 292.5 238.6Q291.4 236.4 291.4 233.3L291.4 233.3Q291.4 230.3 292.5 228.0Q293.7 225.7 295.9 224.5Q298.1 223.2 301.0 223.2L301.0 223.2Q304.0 223.2 306.2 224.5Q308.3 225.7 309.5 228.0Q310.7 230.3 310.7 233.3L310.7 233.3Q310.7 236.4 309.5 238.6Q308.3 240.9 306.2 242.2Q304.0 243.5 301.0 243.5ZM301.1 239.3L301.1 239.3Q302.4 239.3 303.3 238.5Q304.2 237.7 304.7 236.4Q305.2 235.0 305.2 233.3L305.2 233.3Q305.2 231.6 304.7 230.3Q304.2 228.9 303.3 228.1Q302.4 227.4 301.1 227.4L301.1 227.4Q299.7 227.4 298.8 228.1Q297.8 228.9 297.4 230.3Q296.9 231.6 296.9 233.3L296.9 233.3Q296.9 235.0 297.4 236.4Q297.8 237.7 298.8 238.5Q299.7 239.3 301.1 239.3ZM323.4 243.1L317.6 243.1L312.3 223.5L317.8 223.5L320.8 236.6L321.0 236.6L324.2 223.5L329.6 223.5L332.8 236.6L333.0 236.6L336.0 223.5L341.5 223.5L336.1 243.1L330.4 243.1L327.0 230.7L326.8 230.7L323.4 243.1ZM352.8 243.5L352.8 243.5Q349.8 243.5 347.6 242.2Q345.4 241.0 344.3 238.7Q343.1 236.5 343.1 233.4L343.1 233.4Q343.1 230.3 344.3 228.0Q345.4 225.8 347.6 224.5Q349.7 223.2 352.6 223.2L352.6 223.2Q354.6 223.2 356.2 223.8Q357.9 224.4 359.2 225.7Q360.4 226.9 361.1 228.8Q361.8 230.7 361.8 233.2L361.8 233.2L361.8 234.7L345.3 234.7L345.3 231.3L356.7 231.3Q356.7 230.1 356.2 229.2Q355.7 228.3 354.8 227.8Q353.9 227.3 352.7 227.3L352.7 227.3Q351.5 227.3 350.5 227.8Q349.6 228.4 349.0 229.4Q348.5 230.3 348.5 231.5L348.5 231.5L348.5 234.7Q348.5 236.1 349.0 237.2Q349.6 238.3 350.6 238.8Q351.6 239.4 352.9 239.4L352.9 239.4Q353.8 239.4 354.6 239.2Q355.3 238.9 355.9 238.4Q356.4 237.9 356.7 237.1L356.7 237.1L361.7 237.5Q361.3 239.3 360.2 240.6Q359.0 242.0 357.1 242.7Q355.3 243.5 352.8 243.5ZM370.8 243.1L365.4 243.1L365.4 223.5L370.7 223.5L370.7 226.9L370.9 226.9Q371.4 225.1 372.7 224.1Q374.0 223.2 375.6 223.2L375.6 223.2Q376.0 223.2 376.5 223.2Q377.0 223.3 377.3 223.4L377.3 223.4L377.3 228.2Q376.9 228.1 376.3 228.0Q375.6 227.9 375.0 227.9L375.0 227.9Q373.8 227.9 372.9 228.4Q371.9 228.9 371.4 229.9Q370.8 230.8 370.8 232.0L370.8 232.0L370.8 243.1ZM388.1 243.5L388.1 243.5Q385.1 243.5 382.9 242.2Q380.8 241.0 379.6 238.7Q378.4 236.5 378.4 233.4L378.4 233.4Q378.4 230.3 379.6 228.0Q380.8 225.8 382.9 224.5Q385.0 223.2 387.9 223.2L387.9 223.2Q389.9 223.2 391.5 223.8Q393.2 224.4 394.5 225.7Q395.7 226.9 396.5 228.8Q397.2 230.7 397.2 233.2L397.2 233.2L397.2 234.7L380.6 234.7L380.6 231.3L392.0 231.3Q392.0 230.1 391.5 229.2Q391.0 228.3 390.1 227.8Q389.2 227.3 388.0 227.3L388.0 227.3Q386.8 227.3 385.8 227.8Q384.9 228.4 384.3 229.4Q383.8 230.3 383.8 231.5L383.8 231.5L383.8 234.7Q383.8 236.1 384.3 237.2Q384.9 238.3 385.9 238.8Q386.9 239.4 388.2 239.4L388.2 239.4Q389.1 239.4 389.9 239.2Q390.6 238.9 391.2 238.4Q391.7 237.9 392.0 237.1L392.0 237.1L397.0 237.5Q396.7 239.3 395.5 240.6Q394.3 242.0 392.4 242.7Q390.6 243.5 388.1 243.5ZM407.9 243.4L407.9 243.4Q405.7 243.4 403.9 242.3Q402.1 241.1 401.0 238.8Q400.0 236.6 400.0 233.3L400.0 233.3Q400.0 229.9 401.1 227.7Q402.2 225.4 404.0 224.3Q405.8 223.2 407.9 223.2L407.9 223.2Q409.6 223.2 410.7 223.8Q411.8 224.3 412.5 225.1Q413.2 226.0 413.5 226.8L413.5 226.8L413.7 226.8L413.7 216.9L419.1 216.9L419.1 243.1L413.7 243.1L413.7 239.9L413.5 239.9Q413.1 240.8 412.4 241.6Q411.7 242.4 410.6 242.9Q409.5 243.4 407.9 243.4ZM409.7 239.1L409.7 239.1Q411.0 239.1 411.9 238.4Q412.8 237.6 413.3 236.3Q413.8 235.0 413.8 233.3L413.8 233.3Q413.8 231.5 413.3 230.2Q412.8 228.9 411.9 228.2Q411.0 227.5 409.7 227.5L409.7 227.5Q408.3 227.5 407.4 228.3Q406.5 229.0 406.0 230.3Q405.5 231.6 405.5 233.3L405.5 233.3Q405.5 235.0 406.0 236.3Q406.5 237.6 407.4 238.3Q408.3 239.1 409.7 239.1Z M439.6 243.1L434.3 243.1L434.3 216.9L439.7 216.9L439.7 226.8L439.9 226.8Q440.2 226.0 440.9 225.1Q441.6 224.3 442.7 223.8Q443.8 223.2 445.5 223.2L445.5 223.2Q447.6 223.2 449.4 224.3Q451.2 225.4 452.3 227.7Q453.4 229.9 453.4 233.3L453.4 233.3Q453.4 236.6 452.4 238.8Q451.3 241.1 449.5 242.3Q447.7 243.4 445.4 243.4L445.4 243.4Q443.9 243.4 442.7 242.9Q441.6 242.4 440.9 241.6Q440.2 240.8 439.9 239.9L439.9 239.9L439.6 239.9L439.6 243.1ZM439.6 233.3L439.6 233.3Q439.6 235.0 440.1 236.3Q440.6 237.6 441.5 238.4Q442.4 239.1 443.7 239.1L443.7 239.1Q445.0 239.1 446.0 238.3Q446.9 237.6 447.4 236.3Q447.8 235.0 447.8 233.3L447.8 233.3Q447.8 231.6 447.4 230.3Q446.9 229.0 446.0 228.3Q445.1 227.5 443.7 227.5L443.7 227.5Q442.4 227.5 441.5 228.2Q440.6 228.9 440.1 230.2Q439.6 231.5 439.6 233.3ZM459.7 250.5L459.7 250.5Q458.7 250.5 457.8 250.3Q456.9 250.1 456.3 249.9L456.3 249.9L457.5 245.8Q458.5 246.1 459.3 246.1Q460.0 246.2 460.6 245.8Q461.2 245.4 461.5 244.5L461.5 244.5L461.9 243.7L454.8 223.5L460.5 223.5L464.6 237.9L464.8 237.9L468.9 223.5L474.7 223.5L467.0 245.2Q466.5 246.8 465.6 248.0Q464.6 249.2 463.2 249.8Q461.8 250.5 459.7 250.5Z M497.7 222.9L491.1 243.1L485.1 243.1L494.2 216.9L501.3 216.9L510.3 243.1L504.4 243.1L497.9 222.9L497.7 222.9ZM490.7 237.1L490.7 232.8L504.7 232.8L504.7 237.1L490.7 237.1ZM513.5 216.9L519.0 216.9L519.0 243.1L513.5 243.1L513.5 216.9ZM526.7 243.4L526.7 243.4Q525.4 243.4 524.5 242.5Q523.6 241.6 523.6 240.4L523.6 240.4Q523.6 239.1 524.5 238.2Q525.4 237.3 526.7 237.3L526.7 237.3Q527.9 237.3 528.8 238.2Q529.7 239.1 529.7 240.4L529.7 240.4Q529.7 241.2 529.3 241.9Q528.9 242.6 528.2 243.0Q527.5 243.4 526.7 243.4Z "/><mask id="satori_om-id-0-0-1"><rect x="335" y="270" width="131" height="20" fill="#fff"/></mask><path fill="black" d="M337.7 285.5L336.4 285.5L336.4 273.9L337.8 273.9L337.8 278.2L337.9 278.2Q338.0 277.9 338.3 277.6Q338.5 277.2 339.0 276.9Q339.5 276.7 340.4 276.7L340.4 276.7Q341.5 276.7 342.3 277.2Q343.2 277.8 343.6 278.8Q344.1 279.8 344.1 281.2L344.1 281.2Q344.1 282.5 343.6 283.6Q343.2 284.6 342.3 285.1Q341.5 285.7 340.4 285.7L340.4 285.7Q339.6 285.7 339.1 285.4Q338.6 285.1 338.3 284.8Q338.0 284.4 337.9 284.2L337.9 284.2L337.7 284.2L337.7 285.5ZM337.7 281.1L337.7 281.1Q337.7 282.1 338.0 282.9Q338.3 283.6 338.9 284.1Q339.4 284.5 340.2 284.5L340.2 284.5Q341.1 284.5 341.6 284.0Q342.2 283.6 342.5 282.8Q342.8 282.1 342.8 281.1L342.8 281.1Q342.8 280.2 342.5 279.5Q342.2 278.7 341.6 278.3Q341.1 277.9 340.2 277.9L340.2 277.9Q339.4 277.9 338.9 278.3Q338.3 278.7 338.0 279.4Q337.7 280.2 337.7 281.1ZM349.8 285.7L349.8 285.7Q348.6 285.7 347.6 285.1Q346.7 284.6 346.2 283.6Q345.8 282.5 345.8 281.2L345.8 281.2Q345.8 279.9 346.2 278.8Q346.7 277.8 347.6 277.2Q348.5 276.7 349.7 276.7L349.7 276.7Q350.4 276.7 351.0 276.9Q351.7 277.1 352.2 277.6Q352.8 278.1 353.1 279.0Q353.4 279.8 353.4 281.0L353.4 281.0L353.4 281.6L346.7 281.6L346.7 280.4L352.1 280.4Q352.1 279.7 351.8 279.1Q351.5 278.5 350.9 278.2Q350.4 277.9 349.7 277.9L349.7 277.9Q348.9 277.9 348.3 278.3Q347.7 278.7 347.4 279.3Q347.1 279.9 347.1 280.6L347.1 280.6L347.1 281.4Q347.1 282.4 347.4 283.1Q347.8 283.8 348.4 284.1Q349.0 284.5 349.8 284.5L349.8 284.5Q350.3 284.5 350.8 284.3Q351.2 284.2 351.5 283.9Q351.8 283.6 352 283.1L352 283.1L353.3 283.5Q353.1 284.1 352.6 284.6Q352.1 285.1 351.4 285.4Q350.7 285.7 349.8 285.7ZM354.8 276.8L359.3 276.8L359.3 277.9L354.8 277.9L354.8 276.8ZM356.1 283.4L356.1 274.7L357.4 274.7L357.4 283Q357.4 283.6 357.6 283.8Q357.7 284.1 358.0 284.2Q358.3 284.3 358.6 284.3L358.6 284.3Q358.8 284.3 358.9 284.3Q359.1 284.3 359.2 284.3L359.2 284.3L359.4 285.5Q359.3 285.5 359.1 285.6Q358.8 285.6 358.4 285.6L358.4 285.6Q357.9 285.6 357.3 285.4Q356.8 285.1 356.4 284.6Q356.1 284.1 356.1 283.4L356.1 283.4ZM363.9 285.7L363.9 285.7Q363.0 285.7 362.4 285.4Q361.7 285.1 361.3 284.5Q360.9 283.9 360.9 283.0L360.9 283.0Q360.9 282.3 361.2 281.8Q361.5 281.3 362.0 281.1Q362.5 280.8 363.1 280.7Q363.7 280.5 364.3 280.5L364.3 280.5Q365.1 280.4 365.6 280.3Q366.1 280.2 366.3 280.1Q366.5 280.0 366.5 279.7L366.5 279.7L366.5 279.6Q366.5 278.8 366.1 278.3Q365.6 277.8 364.7 277.8L364.7 277.8Q363.7 277.8 363.2 278.3Q362.6 278.7 362.4 279.2L362.4 279.2L361.1 278.7Q361.5 277.9 362.0 277.5Q362.6 277.0 363.3 276.8Q364.0 276.7 364.6 276.7L364.6 276.7Q365.1 276.7 365.6 276.8Q366.2 276.9 366.7 277.2Q367.2 277.5 367.5 278.1Q367.9 278.7 367.9 279.8L367.9 279.8L367.9 285.5L366.5 285.5L366.5 284.3L366.5 284.3Q366.3 284.6 366 284.9Q365.7 285.3 365.2 285.5Q364.6 285.7 363.9 285.7ZM364.1 284.5L364.1 284.5Q364.9 284.5 365.4 284.2Q366.0 283.9 366.2 283.4Q366.5 282.9 366.5 282.3L366.5 282.3L366.5 281.1Q366.4 281.2 366.2 281.3Q365.9 281.4 365.5 281.4Q365.1 281.5 364.8 281.5Q364.4 281.6 364.2 281.6L364.2 281.6Q363.7 281.7 363.2 281.8Q362.8 282.0 362.5 282.3Q362.2 282.6 362.2 283.1L362.2 283.1Q362.2 283.8 362.7 284.1Q363.3 284.5 364.1 284.5ZM371.3 285.6L371.3 285.6Q370.9 285.6 370.6 285.3Q370.3 285.0 370.3 284.6L370.3 284.6Q370.3 284.1 370.6 283.8Q370.9 283.5 371.3 283.5L371.3 283.5Q371.7 283.5 372.0 283.8Q372.3 284.1 372.3 284.6L372.3 284.6Q372.3 284.8 372.2 285.1Q372.0 285.3 371.8 285.5Q371.6 285.6 371.3 285.6ZM376.2 285.5L374.9 285.5L374.9 273.9L376.3 273.9L376.3 278.2L376.4 278.2Q376.5 277.9 376.8 277.6Q377.0 277.2 377.5 276.9Q378.0 276.7 378.9 276.7L378.9 276.7Q380.0 276.7 380.8 277.2Q381.7 277.8 382.1 278.8Q382.6 279.8 382.6 281.2L382.6 281.2Q382.6 282.5 382.1 283.6Q381.7 284.6 380.8 285.1Q380 285.7 378.9 285.7L378.9 285.7Q378.1 285.7 377.6 285.4Q377.1 285.1 376.8 284.8Q376.5 284.4 376.4 284.2L376.4 284.2L376.2 284.2L376.2 285.5ZM376.2 281.1L376.2 281.1Q376.2 282.1 376.5 282.9Q376.8 283.6 377.4 284.1Q377.9 284.5 378.7 284.5L378.7 284.5Q379.6 284.5 380.1 284.0Q380.7 283.6 381.0 282.8Q381.3 282.1 381.3 281.1L381.3 281.1Q381.3 280.2 381.0 279.5Q380.7 278.7 380.1 278.3Q379.6 277.9 378.7 277.9L378.7 277.9Q377.9 277.9 377.4 278.3Q376.8 278.7 376.5 279.4Q376.2 280.2 376.2 281.1ZM388.2 285.7L388.2 285.7Q387.0 285.7 386.1 285.1Q385.2 284.6 384.7 283.5Q384.3 282.5 384.3 281.2L384.3 281.2Q384.3 279.8 384.7 278.8Q385.2 277.8 386.1 277.2Q387.0 276.7 388.2 276.7L388.2 276.7Q389.4 276.7 390.3 277.2Q391.2 277.8 391.7 278.8Q392.2 279.8 392.2 281.2L392.2 281.2Q392.2 282.5 391.7 283.5Q391.2 284.6 390.3 285.1Q389.4 285.7 388.2 285.7ZM388.2 284.5L388.2 284.5Q389.1 284.5 389.7 284.0Q390.3 283.6 390.5 282.8Q390.8 282.1 390.8 281.2L390.8 281.2Q390.8 280.3 390.5 279.6Q390.3 278.8 389.7 278.3Q389.1 277.9 388.2 277.9L388.2 277.9Q387.3 277.9 386.7 278.3Q386.1 278.8 385.9 279.6Q385.6 280.3 385.6 281.2L385.6 281.2Q385.6 282.1 385.9 282.8Q386.1 283.6 386.7 284.0Q387.3 284.5 388.2 284.5ZM397.8 285.7L397.8 285.7Q396.6 285.7 395.7 285.1Q394.8 284.6 394.3 283.5Q393.8 282.5 393.8 281.2L393.8 281.2Q393.8 279.8 394.3 278.8Q394.8 277.8 395.7 277.2Q396.6 276.7 397.8 276.7L397.8 276.7Q398.9 276.7 399.8 277.2Q400.7 277.8 401.2 278.8Q401.7 279.8 401.7 281.2L401.7 281.2Q401.7 282.5 401.2 283.5Q400.7 284.6 399.8 285.1Q398.9 285.7 397.8 285.7ZM397.8 284.5L397.8 284.5Q398.6 284.5 399.2 284.0Q399.8 283.6 400.1 282.8Q400.4 282.1 400.4 281.2L400.4 281.2Q400.4 280.3 400.1 279.6Q399.8 278.8 399.2 278.3Q398.6 277.9 397.8 277.9L397.8 277.9Q396.9 277.9 396.3 278.3Q395.7 278.8 395.4 279.6Q395.1 280.3 395.1 281.2L395.1 281.2Q395.1 282.1 395.4 282.8Q395.7 283.6 396.3 284.0Q396.9 284.5 397.8 284.5ZM406.5 280.9L405.0 282.3L405.0 280.7L405.3 280.7L409.1 276.8L410.7 276.8L406.7 280.9L406.5 280.9ZM405.1 285.5L403.8 285.5L403.8 273.9L405.1 273.9L405.1 285.5ZM411.0 285.5L409.3 285.5L405.9 281.2L406.8 280.3L411.0 285.5ZM412.5 273.9L413.8 273.9L413.8 285.5L412.5 285.5L412.5 273.9ZM417.1 288.8L417.1 288.8Q416.8 288.8 416.5 288.7Q416.2 288.7 416.1 288.6L416.1 288.6L416.5 287.4Q417.0 287.6 417.3 287.5Q417.7 287.5 418.0 287.2Q418.3 286.9 418.5 286.2L418.5 286.2L418.8 285.5L415.6 276.8L417.0 276.8L419.4 283.7L419.5 283.7L421.9 276.8L423.4 276.8L419.7 286.8Q419.4 287.4 419.1 287.9Q418.7 288.3 418.2 288.6Q417.7 288.8 417.1 288.8ZM427.5 285.7L427.5 285.7Q426.6 285.7 425.9 285.4Q425.3 285.1 424.9 284.5Q424.5 283.9 424.5 283.0L424.5 283.0Q424.5 282.3 424.8 281.8Q425.1 281.3 425.6 281.1Q426.1 280.8 426.7 280.7Q427.3 280.5 427.9 280.5L427.9 280.5Q428.7 280.4 429.2 280.3Q429.7 280.2 429.9 280.1Q430.1 280.0 430.1 279.7L430.1 279.7L430.1 279.6Q430.1 278.8 429.7 278.3Q429.2 277.8 428.3 277.8L428.3 277.8Q427.3 277.8 426.8 278.3Q426.2 278.7 426.0 279.2L426.0 279.2L424.7 278.7Q425.1 277.9 425.6 277.5Q426.2 277.0 426.9 276.8Q427.6 276.7 428.2 276.7L428.2 276.7Q428.6 276.7 429.2 276.8Q429.7 276.9 430.3 277.2Q430.8 277.5 431.1 278.1Q431.5 278.7 431.5 279.8L431.5 279.8L431.5 285.5L430.1 285.5L430.1 284.3L430.0 284.3Q429.9 284.6 429.6 284.9Q429.3 285.3 428.7 285.5Q428.2 285.7 427.5 285.7ZM427.7 284.5L427.7 284.5Q428.5 284.5 429.0 284.2Q429.6 283.9 429.8 283.4Q430.1 282.9 430.1 282.3L430.1 282.3L430.1 281.1Q430.0 281.2 429.7 281.3Q429.5 281.4 429.1 281.4Q428.7 281.5 428.4 281.5Q428.0 281.6 427.8 281.6L427.8 281.6Q427.3 281.7 426.8 281.8Q426.4 282.0 426.1 282.3Q425.8 282.6 425.8 283.1L425.8 283.1Q425.8 283.8 426.3 284.1Q426.9 284.5 427.7 284.5ZM435.3 285.5L433.9 285.5L433.9 276.8L435.3 276.8L435.3 285.5ZM434.6 275.3L434.6 275.3Q434.2 275.3 433.9 275.1Q433.6 274.8 433.6 274.4L433.6 274.4Q433.6 274.0 433.9 273.8Q434.2 273.5 434.6 273.5L434.6 273.5Q435.0 273.5 435.3 273.8Q435.5 274.0 435.5 274.4L435.5 274.4Q435.5 274.8 435.3 275.1Q435.0 275.3 434.6 275.3ZM438.7 285.6L438.7 285.6Q438.3 285.6 438.0 285.3Q437.7 285.0 437.7 284.6L437.7 284.6Q437.7 284.1 438.0 283.8Q438.3 283.5 438.7 283.5L438.7 283.5Q439.1 283.5 439.4 283.8Q439.7 284.1 439.7 284.6L439.7 284.6Q439.7 284.8 439.6 285.1Q439.4 285.3 439.2 285.5Q439.0 285.6 438.7 285.6ZM443.5 280.3L443.5 280.3L443.5 285.5L442.1 285.5L442.1 276.8L443.4 276.8L443.4 278.1L443.5 278.1Q443.8 277.5 444.5 277.1Q445.1 276.7 446.1 276.7L446.1 276.7Q447.0 276.7 447.6 277.0Q448.3 277.4 448.7 278.1Q449.0 278.8 449.0 280.0L449.0 280.0L449.0 285.5L447.7 285.5L447.7 280.0Q447.7 279.0 447.1 278.4Q446.6 277.9 445.7 277.9L445.7 277.9Q445.0 277.9 444.5 278.1Q444.0 278.4 443.7 279.0Q443.5 279.5 443.5 280.3ZM455.1 285.7L455.1 285.7Q453.9 285.7 453.0 285.1Q452.1 284.6 451.6 283.6Q451.1 282.5 451.1 281.2L451.1 281.2Q451.1 279.9 451.6 278.8Q452.1 277.8 452.9 277.2Q453.8 276.7 455.0 276.7L455.0 276.7Q455.7 276.7 456.3 276.9Q457.0 277.1 457.6 277.6Q458.1 278.1 458.4 279.0Q458.8 279.8 458.8 281.0L458.8 281.0L458.8 281.6L452.0 281.6L452.0 280.4L457.4 280.4Q457.4 279.7 457.1 279.1Q456.8 278.5 456.3 278.2Q455.7 277.9 455.0 277.9L455.0 277.9Q454.2 277.9 453.6 278.3Q453.0 278.7 452.7 279.3Q452.4 279.9 452.4 280.6L452.4 280.6L452.4 281.4Q452.4 282.4 452.8 283.1Q453.1 283.8 453.7 284.1Q454.3 284.5 455.1 284.5L455.1 284.5Q455.7 284.5 456.1 284.3Q456.5 284.2 456.8 283.9Q457.1 283.6 457.3 283.1L457.3 283.1L458.6 283.5Q458.4 284.1 457.9 284.6Q457.4 285.1 456.7 285.4Q456.0 285.7 455.1 285.7ZM460.1 276.8L464.6 276.8L464.6 277.9L460.1 277.9L460.1 276.8ZM461.4 283.4L461.4 274.7L462.7 274.7L462.7 283Q462.7 283.6 462.9 283.8Q463.1 284.1 463.3 284.2Q463.6 284.3 463.9 284.3L463.9 284.3Q464.1 284.3 464.3 284.3Q464.4 284.3 464.5 284.3L464.5 284.3L464.8 285.5Q464.6 285.5 464.4 285.6Q464.1 285.6 463.8 285.6L463.8 285.6Q463.2 285.6 462.6 285.4Q462.1 285.1 461.7 284.6Q461.4 284.1 461.4 283.4L461.4 283.4Z "/></svg>